<?xml version="1.0" standalone="no"?>
<!DOCTYPE svg PUBLIC "-//W3C//DTD SVG 20010904//EN"
 "http://www.w3.org/TR/2001/REC-SVG-20010904/DTD/svg10.dtd">
<svg version="1.0" xmlns="http://www.w3.org/2000/svg"
 width="200.000000pt" height="200.000000pt" viewBox="0 0 200.000000 200.000000"
 preserveAspectRatio="xMidYMid meet">
<metadata>
Created by potrace 1.11, written by Peter Selinger 2001-2013
</metadata>
<g transform="translate(0.000000,200.000000) scale(0.100000,-0.100000)"
fill="#000000" stroke="none">
<path d="M775 1981 c-39 -10 -88 -29 -110 -42 -47 -27 -127 -88 -138 -106 -15
-24 -47 7 -40 38 4 21 1 28 -16 34 -11 3 -25 4 -30 1 -15 -10 -121 -185 -121
-201 0 -24 36 -38 54 -20 16 16 46 10 45 -9 0 -6 -8 -42 -18 -81 -36 -137 -8
-295 74 -419 41 -62 133 -148 153 -144 7 2 136 201 287 443 210 337 271 443
262 451 -7 7 -43 24 -82 39 -93 37 -220 43 -320 16z m-296 -180 c13 -8 5 -26
-35 -80 -2 -2 -10 -1 -19 3 -15 5 -14 10 6 46 24 43 27 44 48 31z"/>
<path d="M1223 1625 c35 -117 24 -188 -39 -255 -75 -81 -80 -202 -11 -277 30
-34 36 -28 20 20 -24 68 -12 139 34 204 58 82 72 114 73 166 0 56 -20 104 -57
138 -23 22 -25 22 -20 4z"/>
<path d="M1034 1492 c24 -82 18 -124 -25 -178 -58 -73 -69 -131 -36 -195 25
-49 54 -68 37 -24 -22 58 -13 108 35 181 25 37 45 77 46 89 2 43 -3 71 -19
102 -18 36 -47 55 -38 25z"/>
<path d="M1375 1493 c24 -64 13 -140 -27 -182 -56 -61 -68 -140 -31 -204 24
-40 47 -49 33 -12 -20 53 -4 150 29 175 4 3 17 20 30 37 31 45 31 118 -1 167
-24 37 -45 49 -33 19z"/>
<path d="M648 972 c-26 -3 -27 -6 -22 -45 18 -151 103 -302 217 -383 l27 -19
-81 -248 c-44 -137 -79 -250 -77 -251 2 -2 18 -8 35 -14 29 -9 34 -8 43 8 5
10 11 27 13 37 2 10 12 44 22 76 16 49 22 57 44 58 174 6 594 2 601 -6 4 -5
20 -48 35 -95 15 -47 28 -86 29 -87 6 -8 74 22 71 31 -2 6 -38 117 -79 247
-42 130 -76 241 -76 247 0 6 12 18 28 28 43 26 118 120 150 187 31 64 52 146
52 197 0 29 -1 30 -52 30 -357 3 -959 4 -980 2z m507 -524 c76 0 114 5 159 21
33 12 60 20 61 19 3 -4 75 -227 75 -233 0 -3 -130 -5 -290 -5 -159 0 -290 4
-290 9 0 4 16 58 35 118 l36 110 57 -20 c42 -15 83 -20 157 -19z"/>
</g>
</svg>
